<?xml version="1.0" standalone="no"?>
<!DOCTYPE svg PUBLIC "-//W3C//DTD SVG 20010904//EN"
 "http://www.w3.org/TR/2001/REC-SVG-20010904/DTD/svg10.dtd">
<svg version="1.0" xmlns="http://www.w3.org/2000/svg"
 width="500.000000pt" height="500.000000pt" viewBox="0 0 500.000000 500.000000"
 preserveAspectRatio="xMidYMid meet">
<metadata>
Created by potrace 1.14, written by Peter Selinger 2001-2017
</metadata>
<g transform="translate(0.000000,500.000000) scale(0.100000,-0.100000)"
fill="#000000" stroke="none">
<path d="M829 4593 c-12 -13 -14 -240 -15 -1387 0 -1279 1 -1373 17 -1396 l17
-25 289 0 c207 0 294 3 304 12 12 10 14 99 14 555 -1 578 -1 573 46 599 31 16
97 22 239 21 155 0 161 -1 194 -28 24 -20 64 -89 69 -121 1 -10 6 -24 10 -30
5 -7 5 -17 2 -23 -3 -5 -3 -16 2 -22 4 -7 8 -182 9 -388 1 -206 2 -377 3 -379
1 -5 61 77 61 84 0 3 4 11 10 18 22 27 119 167 115 167 -2 0 7 12 20 26 14 15
22 30 19 35 -3 5 -1 9 5 9 5 0 16 11 23 24 14 26 130 198 138 206 16 14 50 70
44 70 -4 0 1 7 12 15 10 8 16 15 12 15 -5 0 0 8 10 19 20 21 98 135 95 138 -2
2 9 14 22 29 14 15 22 30 19 35 -3 5 -1 9 5 9 5 0 16 11 23 24 18 33 70 110
77 116 12 9 53 70 47 70 -3 0 6 12 19 26 14 15 22 30 20 34 -3 5 0 10 7 12 6
2 12 11 14 20 4 29 -59 16 -162 -33 -22 -10 -43 -19 -46 -19 -5 0 -16 27 -23
60 -2 8 -44 54 -93 102 -49 47 -98 99 -109 115 -19 28 -24 78 -10 101 5 6 5
12 1 12 -3 0 -1 7 6 15 7 8 10 15 6 15 -4 0 0 13 9 30 8 16 15 31 14 32 -1 2
5 19 13 38 16 36 30 69 33 83 2 4 4 10 5 15 1 4 2 10 1 15 0 4 3 7 8 7 5 0 11
10 15 23 3 13 13 41 23 63 9 21 18 42 19 47 1 4 3 10 4 15 1 4 2 10 1 15 0 4
3 7 8 7 5 0 12 11 15 25 3 13 11 37 18 52 6 15 12 30 13 33 1 3 7 19 14 35 7
17 14 35 15 40 3 9 18 48 33 85 3 8 7 20 8 26 2 6 10 27 18 45 24 57 51 134
49 142 -1 4 2 7 8 7 5 0 10 8 10 18 0 10 5 23 12 30 7 7 9 12 6 12 -4 0 2 17
12 38 16 31 17 40 6 57 -13 19 -26 20 -302 23 -159 1 -298 0 -310 -2 -20 -5
-42 -43 -78 -131 -27 -69 -39 -100 -42 -110 -1 -5 -16 -48 -34 -95 -36 -95
-38 -103 -36 -111 0 -3 -4 -12 -10 -20 -10 -12 -21 -45 -24 -74 -1 -5 -6 -16
-12 -22 -6 -7 -8 -13 -5 -13 3 0 0 -12 -8 -27 -8 -15 -12 -30 -9 -35 3 -4 0
-8 -7 -8 -7 0 -10 -3 -6 -6 3 -4 0 -19 -9 -35 -8 -16 -12 -29 -9 -29 3 0 -1
-13 -10 -30 -9 -16 -13 -30 -10 -30 3 0 -2 -11 -11 -25 -9 -14 -13 -25 -9 -25
4 0 2 -7 -5 -15 -7 -8 -9 -15 -5 -15 4 0 2 -7 -5 -15 -7 -8 -9 -15 -5 -15 4 0
2 -6 -4 -13 -6 -8 -8 -17 -4 -20 3 -4 1 -7 -6 -7 -8 0 -11 -7 -7 -15 3 -8 2
-15 -2 -15 -8 0 -36 -88 -34 -102 1 -5 -3 -8 -9 -8 -5 0 -8 -3 -5 -8 10 -16
-49 -70 -85 -77 -79 -16 -195 4 -215 37 -15 24 -16 41 -18 564 -1 424 -4 524
-15 538 -12 14 -47 16 -306 16 -260 0 -294 -2 -306 -17z"/>
<path d="M3259 3190 c-27 -24 -118 -157 -112 -164 4 -3 1 -6 -5 -6 -6 0 -18
-13 -26 -29 -8 -15 -31 -49 -51 -75 -19 -25 -32 -46 -27 -46 4 0 2 -4 -4 -8
-14 -9 -86 -112 -78 -112 3 0 -1 -7 -9 -15 -9 -8 -72 -99 -142 -202 -70 -104
-174 -258 -232 -343 -181 -265 -263 -390 -263 -399 0 -5 6 -11 13 -13 9 -4 13
-104 14 -449 2 -398 5 -503 13 -519 2 -3 4 -9 5 -15 2 -5 4 -13 5 -17 1 -5 3
-11 4 -15 3 -20 70 -123 108 -170 58 -69 166 -155 247 -194 l66 -32 480 0
c264 0 489 3 500 5 71 16 189 94 271 180 44 46 163 209 165 227 0 3 2 13 4 21
13 65 18 104 19 160 1 36 4 70 7 75 6 12 2 1412 -5 1570 -6 126 -12 176 -25
184 -8 6 -24 46 -26 63 0 4 -6 13 -12 20 -7 6 -13 16 -13 20 0 4 -16 32 -35
62 -32 50 -101 116 -170 163 -33 22 -142 82 -150 83 -3 0 -6 1 -7 1 -2 1 -117
2 -257 3 -214 1 -258 -1 -272 -14z m146 -550 c0 -1 9 -3 19 -5 11 -2 31 -15
45 -29 l26 -26 -2 -753 c-1 -413 -2 -764 -3 -778 -2 -31 -40 -71 -72 -75 -13
-1 -23 -3 -23 -4 0 -11 -244 -20 -251 -9 -3 5 -10 7 -15 3 -13 -8 -48 24 -62
56 -7 17 -11 284 -12 794 l-1 769 23 28 c13 15 34 29 46 31 22 4 282 2 282 -2z"/>
</g>
</svg>
